<svg width="72" height="72" viewBox="0 0 72 72" fill="none" xmlns="http://www.w3.org/2000/svg">
<circle cx="36" cy="36" r="35" stroke="white" stroke-width="2"/>
<line x1="16" y1="39" x2="33" y2="39" stroke="white" stroke-width="2"/>
<circle cx="30.5" cy="41.5" r="2.5" fill="white"/>
<rect x="30" y="38" width="3" height="3" fill="white"/>
<line x1="45" y1="39" x2="62" y2="39" stroke="white" stroke-width="2"/>
<circle cx="59.5" cy="41.5" r="2.5" fill="white"/>
<rect x="59" y="38" width="3" height="3" fill="white"/>
<path d="M17.7441 46C17.7441 47.7246 17.4125 49.311 16.8545 50.4844C16.3142 51.6204 15.4697 52.538 14.3721 52.5381C13.2745 52.5381 12.43 51.6203 11.8896 50.4844C11.3316 49.311 11.0001 47.7245 11 46H12C12.0001 47.6097 12.3118 49.0429 12.793 50.0547C13.292 51.104 13.8837 51.5381 14.3721 51.5381C14.8605 51.538 15.4521 51.104 15.9512 50.0547C16.4323 49.0429 16.7441 47.6097 16.7441 46H17.7441Z" fill="white"/>
<path d="M21.1074 53.6934C21.1074 54.7179 20.8626 55.6712 20.4404 56.3838C20.0247 57.0852 19.3791 57.6366 18.5684 57.6367C17.7575 57.6367 17.111 57.0854 16.6953 56.3838C16.2731 55.6712 16.0284 54.7179 16.0283 53.6934H17.0283V53.6943C17.0284 54.5709 17.2397 55.3407 17.5557 55.874C17.8781 56.4182 18.2529 56.6367 18.5684 56.6367C18.8837 56.6366 19.2577 56.4179 19.5801 55.874C19.896 55.3407 20.1073 54.5709 20.1074 53.6943V53.6934H21.1074Z" fill="white"/>
</svg>
