<svg width="35" height="35" viewBox="0 0 35 35" fill="none" xmlns="http://www.w3.org/2000/svg">
<path d="M30.5768 12.3468C31.1471 13.3114 32.1948 13.9614 33.3968 13.9681C33.624 13.9694 33.845 13.9435 34.0593 13.9006C34.1939 14.0969 34.3482 14.2787 34.5211 14.4413L34.4996 19.8182C34.4994 19.8609 34.4947 19.9031 34.4921 19.9451C34.3059 20.1271 34.1414 20.3311 34.0023 20.5527C33.7945 20.5109 33.58 20.4869 33.3601 20.4856C32.3762 20.4801 31.4909 20.9066 30.8831 21.5869C30.3479 21.174 30.0025 20.5269 30.0055 19.7987L30.0305 13.8046C30.033 13.247 30.2388 12.738 30.5768 12.3468Z" fill="white"/>
<path d="M30.15 23.1071C29.8798 24.1943 30.1706 25.3925 31.0218 26.2407C31.1828 26.4012 31.3582 26.5388 31.5412 26.6589C31.4995 26.8926 31.4824 27.1297 31.4914 27.3662L27.7031 31.1821C27.6731 31.2123 27.6408 31.2397 27.6094 31.2679C27.3482 31.2668 27.0868 31.2964 26.8314 31.3571C26.7131 31.1815 26.5779 31.0135 26.4224 30.8585C25.7253 30.1641 24.7955 29.8466 23.8851 29.9048C23.7935 29.235 24.0017 28.5316 24.5147 28.0148L28.7378 23.7624C29.1308 23.3669 29.6347 23.1487 30.15 23.1071Z" fill="white"/>
<path d="M3.96484 12.3792C3.38908 13.3407 2.33774 13.9847 1.13574 13.9847C0.908601 13.9847 0.687722 13.9576 0.473631 13.9134C0.337922 14.109 0.182589 14.2899 0.00878763 14.4515L-1.43051e-06 19.8285C-5.67436e-05 19.8711 0.00444031 19.9133 0.00683451 19.9554C0.191972 20.1384 0.355302 20.3434 0.493163 20.5658C0.701143 20.5251 0.915846 20.5023 1.13574 20.5023C2.11961 20.5023 3.00256 20.9338 3.60644 21.6175C4.14402 21.2077 4.49306 20.5625 4.49414 19.8343L4.50293 13.8402C4.50359 13.2825 4.30068 12.7724 3.96484 12.3792Z" fill="white"/>
<path d="M4.231 22.8115C4.46712 23.9067 4.1391 25.0951 3.26186 25.9164C3.0959 26.0718 2.91632 26.2038 2.72972 26.3182C2.76404 26.5531 2.77376 26.7906 2.75738 27.0267L6.42478 30.9589C6.45388 30.99 6.48533 31.0185 6.5158 31.0476C6.7769 31.0546 7.03719 31.0924 7.29063 31.161C7.41435 30.9892 7.55468 30.8255 7.715 30.6755C8.4334 30.0031 9.37271 29.7148 10.2808 29.8014C10.3932 29.1348 10.2071 28.4252 9.71045 27.8927L5.62203 23.5105C5.24162 23.1029 4.74473 22.8692 4.231 22.8115Z" fill="white"/>
<path d="M22.2894 30.4602C21.3351 31.0471 20.7045 32.1065 20.7181 33.3084C20.7207 33.5354 20.7497 33.7561 20.796 33.9696C20.6022 34.1075 20.4236 34.2651 20.2642 34.4405L14.8886 34.5104C14.8456 34.511 14.8031 34.507 14.7606 34.5051C14.5752 34.3216 14.3682 34.1602 14.1438 34.0247C14.1824 33.8166 14.2034 33.6021 14.201 33.3824C14.1898 32.3983 13.7483 31.5198 13.0577 30.9236C13.4614 30.3813 14.1026 30.0252 14.8307 30.0157L20.8214 29.9388C21.3793 29.9316 21.8922 30.1288 22.2894 30.4602Z" fill="white"/>
<path d="M30.1794 11.3325C29.8984 10.248 30.1771 9.04701 31.0198 8.19026C31.1792 8.02822 31.3531 7.88885 31.5349 7.76687C31.4909 7.53364 31.4714 7.2967 31.478 7.06014L27.6517 3.28248C27.6213 3.25253 27.5887 3.22542 27.5571 3.19761C27.2959 3.20133 27.0343 3.17428 26.7782 3.11623C26.6617 3.29295 26.5282 3.46228 26.3742 3.61883C25.6841 4.32022 24.7575 4.64703 23.8467 4.59795C23.7618 5.26863 23.977 5.96993 24.4952 6.48152L28.7608 10.6914C29.1576 11.083 29.6637 11.296 30.1794 11.3325Z" fill="white"/>
<path d="M4.40109 11.3415C4.68093 10.2567 4.40084 9.05598 3.55724 8.20017C3.39765 8.0383 3.22351 7.89913 3.04165 7.77735C3.08536 7.54408 3.10459 7.30711 3.0977 7.07056L6.91983 3.28863C6.95016 3.25864 6.98272 3.2315 7.01433 3.20365C7.27551 3.20708 7.5371 3.17974 7.79309 3.1214C7.90982 3.29799 8.04347 3.46717 8.19765 3.62355C8.88852 4.32416 9.81549 4.64994 10.7263 4.59985C10.812 5.27044 10.5975 5.97196 10.0799 6.48414L5.81903 10.6988C5.42258 11.0908 4.91672 11.3044 4.40109 11.3415Z" fill="white"/>
<path d="M22.3538 4.05694C21.3989 3.47162 20.7667 2.41372 20.7783 1.21212C20.7806 0.984852 20.8092 0.763691 20.8552 0.549765C20.6613 0.412256 20.4824 0.254809 20.3227 0.0796348L14.9471 0.0177013C14.8706 0.016845 14.7949 0.0202523 14.7204 0.0271798C14.5585 0.181156 14.3814 0.319237 14.1909 0.437981C14.2385 0.666535 14.2634 0.903762 14.2611 1.14672C14.2513 2.13073 13.8111 3.01008 13.1215 3.60725C13.526 4.14882 14.1677 4.50414 14.8958 4.51253L20.8866 4.58055C21.4444 4.58684 21.9571 4.38893 22.3538 4.05694Z" fill="white"/>
<path d="M17.3029 3.16473C25.0803 3.16473 31.3849 9.47093 31.3849 17.2497C31.3848 25.0283 25.0802 31.3337 17.3029 31.3337C9.5257 31.3336 3.22103 25.0283 3.22089 17.2497C3.22089 9.47099 9.52561 3.16483 17.3029 3.16473ZM17.3029 9.60809C13.1247 9.60819 9.73749 12.9955 9.73749 17.1745C9.73749 21.3535 13.1247 24.7408 17.3029 24.7409C21.4812 24.7409 24.8683 21.3535 24.8683 17.1745C24.8683 12.9955 21.4812 9.60809 17.3029 9.60809Z" fill="white"/>
</svg>
